<svg width="34" height="32" viewBox="0 0 34 32" fill="none" xmlns="http://www.w3.org/2000/svg">
<path d="M31.4072 1L18.9209 10.2738L21.2299 4.80237L31.4072 1Z" fill="#E2761B" stroke="#E2761B" stroke-linecap="round" stroke-linejoin="round"/>
<path d="M2.58203 1L14.968 10.3616L12.7719 4.80237L2.58203 1Z" fill="#E4761B" stroke="#E4761B" stroke-linecap="round" stroke-linejoin="round"/>
<path d="M26.9144 22.4965L23.5889 27.5914L30.7042 29.5491L32.7497 22.6094L26.9144 22.4965Z" fill="#E4761B" stroke="#E4761B" stroke-linecap="round" stroke-linejoin="round"/>
<path d="M1.26416 22.6094L3.29711 29.5491L10.4124 27.5914L7.08692 22.4965L1.26416 22.6094Z" fill="#E4761B" stroke="#E4761B" stroke-linecap="round" stroke-linejoin="round"/>
<path d="M10.0106 13.8879L8.02783 16.8871L15.093 17.2008L14.842 9.60864L10.0106 13.8879Z" fill="#E4761B" stroke="#E4761B" stroke-linecap="round" stroke-linejoin="round"/>
<path d="M23.9777 13.8878L19.0835 9.52075L18.9204 17.2008L25.973 16.8871L23.9777 13.8878Z" fill="#E4761B" stroke="#E4761B" stroke-linecap="round" stroke-linejoin="round"/>
<path d="M10.4126 27.5914L14.6542 25.5208L10.9899 22.6596L10.4126 27.5914Z" fill="#E4761B" stroke="#E4761B" stroke-linecap="round" stroke-linejoin="round"/>
<path d="M19.3354 25.5208L23.5896 27.5914L22.9998 22.6596L19.3354 25.5208Z" fill="#E4761B" stroke="#E4761B" stroke-linecap="round" stroke-linejoin="round"/>
<path d="M23.5891 27.5916L19.335 25.521L19.6738 28.2943L19.6361 29.4614L23.5891 27.5916Z" fill="#D7C1B3" stroke="#D7C1B3" stroke-linecap="round" stroke-linejoin="round"/>
<path d="M10.4126 27.5915L14.3656 29.4613L14.3405 28.2943L14.6542 25.5209L10.4126 27.5915Z" fill="#D7C1B3" stroke="#D7C1B3" stroke-linecap="round" stroke-linejoin="round"/>
<path d="M14.427 20.8276L10.8882 19.786L13.3854 18.644L14.427 20.8276Z" fill="#233447" stroke="#233447" stroke-linecap="round" stroke-linejoin="round"/>
<path d="M19.5601 20.8276L20.6016 18.644L23.1114 19.786L19.5601 20.8276Z" fill="#233447" stroke="#233447" stroke-linecap="round" stroke-linejoin="round"/>
<path d="M10.4114 27.5915L11.0138 22.4966L7.08594 22.6096L10.4114 27.5915Z" fill="#CD6116" stroke="#CD6116" stroke-linecap="round" stroke-linejoin="round"/>
<path d="M22.9863 22.4966L23.5887 27.5915L26.9142 22.6096L22.9863 22.4966Z" fill="#CD6116" stroke="#CD6116" stroke-linecap="round" stroke-linejoin="round"/>
<path d="M25.973 16.8872L18.9204 17.2009L19.573 20.8276L20.6145 18.6441L23.1243 19.786L25.973 16.8872Z" fill="#CD6116" stroke="#CD6116" stroke-linecap="round" stroke-linejoin="round"/>
<path d="M10.889 19.786L13.3988 18.6441L14.4279 20.8276L15.093 17.2009L8.02783 16.8872L10.889 19.786Z" fill="#CD6116" stroke="#CD6116" stroke-linecap="round" stroke-linejoin="round"/>
<path d="M8.02783 16.8872L10.9894 22.6598L10.889 19.786L8.02783 16.8872Z" fill="#E4751F" stroke="#E4751F" stroke-linecap="round" stroke-linejoin="round"/>
<path d="M23.1245 19.786L22.999 22.6598L25.9732 16.8872L23.1245 19.786Z" fill="#E4751F" stroke="#E4751F" stroke-linecap="round" stroke-linejoin="round"/>
<path d="M15.0938 17.2009L14.4287 20.8276L15.2569 25.1068L15.4452 19.4723L15.0938 17.2009Z" fill="#E4751F" stroke="#E4751F" stroke-linecap="round" stroke-linejoin="round"/>
<path d="M18.9209 17.2009L18.582 19.4597L18.7326 25.1068L19.5734 20.8276L18.9209 17.2009Z" fill="#E4751F" stroke="#E4751F" stroke-linecap="round" stroke-linejoin="round"/>
<path d="M19.5727 20.8276L18.7319 25.1068L19.3343 25.5209L22.9986 22.6597L23.1241 19.786L19.5727 20.8276Z" fill="#F6851B" stroke="#F6851B" stroke-linecap="round" stroke-linejoin="round"/>
<path d="M10.8882 19.786L10.9886 22.6597L14.6529 25.5209L15.2553 25.1068L14.427 20.8276L10.8882 19.786Z" fill="#F6851B" stroke="#F6851B" stroke-linecap="round" stroke-linejoin="round"/>
<path d="M19.6362 29.4613L19.6738 28.2942L19.3601 28.0181H14.6291L14.3405 28.2942L14.3656 29.4613L10.4126 27.5915L11.793 28.7209L14.5914 30.666H19.3977L22.2087 28.7209L23.5891 27.5915L19.6362 29.4613Z" fill="#C0AD9E" stroke="#C0AD9E" stroke-linecap="round" stroke-linejoin="round"/>
<path d="M19.3349 25.5209L18.7325 25.1068H15.2564L14.6541 25.5209L14.3403 28.2942L14.629 28.0181H19.36L19.6737 28.2942L19.3349 25.5209Z" fill="#161616" stroke="#161616" stroke-linecap="round" stroke-linejoin="round"/>
<path d="M31.9337 10.8762L33.0004 5.75616L31.4067 1.00006L19.3345 9.96009L23.9776 13.8879L30.5408 15.808L31.9965 14.1138L31.369 13.6621L32.3729 12.746L31.5949 12.1436L32.5988 11.3781L31.9337 10.8762Z" fill="#763D16" stroke="#763D16" stroke-linecap="round" stroke-linejoin="round"/>
<path d="M1 5.75616L2.06667 10.8762L1.38902 11.3781L2.39295 12.1436L1.62745 12.746L2.63138 13.6621L2.00392 14.1138L3.44707 15.808L10.0102 13.8879L14.6534 9.96009L2.58118 1.00006L1 5.75616Z" fill="#763D16" stroke="#763D16" stroke-linecap="round" stroke-linejoin="round"/>
<path d="M30.5406 15.808L23.9774 13.888L25.9727 16.8872L22.9985 22.6598L26.9139 22.6096H32.7493L30.5406 15.808Z" fill="#F6851B" stroke="#F6851B" stroke-linecap="round" stroke-linejoin="round"/>
<path d="M10.0104 13.888L3.44721 15.808L1.26367 22.6096H7.08644L10.9892 22.6598L8.02762 16.8872L10.0104 13.888Z" fill="#F6851B" stroke="#F6851B" stroke-linecap="round" stroke-linejoin="round"/>
<path d="M18.92 17.2009L19.3342 9.96009L21.2416 4.80243H12.771L14.6534 9.96009L15.0926 17.2009L15.2432 19.4848L15.2557 25.1068H18.7318L18.7569 19.4848L18.92 17.2009Z" fill="#F6851B" stroke="#F6851B" stroke-linecap="round" stroke-linejoin="round"/>
</svg>
